<mxfile host="app.diagrams.net" modified="2022-03-08T17:40:41.265Z" agent="5.0 (Windows NT 10.0; Win64; x64) AppleWebKit/537.36 (KHTML, like Gecko) Chrome/99.0.4844.51 Safari/537.36 Edg/99.0.1150.30" etag="COnZF_x0RYi2K9861b0O" version="17.0.0" type="github">
  <diagram id="yPxyJZ8AM_hMuL3Unpa9" name="gitflow">
    <mxGraphModel dx="782" dy="468" grid="1" gridSize="10" guides="1" tooltips="1" connect="1" arrows="1" fold="1" page="1" pageScale="1" pageWidth="850" pageHeight="1100" math="0" shadow="0">
      <root>
        <mxCell id="0" />
        <mxCell id="1" parent="0" />
        <object label="User&lt;br&gt;" id="ce-0WmokCaHtLLE00WAw-1">
          <mxCell style="shape=umlActor;verticalLabelPosition=bottom;verticalAlign=top;html=1;outlineConnect=0;" parent="1" vertex="1">
            <mxGeometry x="20" y="155" width="30" height="70" as="geometry" />
          </mxCell>
        </object>
        <mxCell id="ce-0WmokCaHtLLE00WAw-2" value="&lt;span style=&quot;white-space: pre&quot;&gt;	&lt;/span&gt;&lt;span style=&quot;white-space: pre&quot;&gt;	&lt;/span&gt;" style="shape=datastore;whiteSpace=wrap;html=1;" parent="1" vertex="1">
          <mxGeometry x="560" y="175" width="60" height="60" as="geometry" />
        </mxCell>
        <mxCell id="ce-0WmokCaHtLLE00WAw-3" value="" style="verticalLabelPosition=bottom;html=1;verticalAlign=top;align=center;strokeColor=none;fillColor=#00BEF2;shape=mxgraph.azure.access_control;" parent="1" vertex="1">
          <mxGeometry x="420" y="30" width="50" height="50" as="geometry" />
        </mxCell>
        <mxCell id="ce-0WmokCaHtLLE00WAw-6" value="" style="shape=image;html=1;verticalAlign=top;verticalLabelPosition=bottom;labelBackgroundColor=#ffffff;imageAspect=0;aspect=fixed;image=https://cdn0.iconfinder.com/data/icons/social-media-2104/24/social_media_social_media_logo_docker-128.png" parent="1" vertex="1">
          <mxGeometry x="412" y="167" width="68" height="68" as="geometry" />
        </mxCell>
        <mxCell id="ce-0WmokCaHtLLE00WAw-7" value="Internet&lt;br&gt;" style="text;html=1;align=center;verticalAlign=middle;resizable=0;points=[];autosize=1;strokeColor=none;fillColor=none;" parent="1" vertex="1">
          <mxGeometry x="215" y="83.35" width="60" height="20" as="geometry" />
        </mxCell>
        <mxCell id="ce-0WmokCaHtLLE00WAw-9" value="Database" style="text;html=1;align=center;verticalAlign=middle;resizable=0;points=[];autosize=1;strokeColor=none;fillColor=none;" parent="1" vertex="1">
          <mxGeometry x="555" y="237" width="70" height="20" as="geometry" />
        </mxCell>
        <mxCell id="ce-0WmokCaHtLLE00WAw-10" value="" style="endArrow=classic;html=1;rounded=0;" parent="1" edge="1">
          <mxGeometry width="50" height="50" relative="1" as="geometry">
            <mxPoint x="310" y="54.5" as="sourcePoint" />
            <mxPoint x="390" y="54.5" as="targetPoint" />
          </mxGeometry>
        </mxCell>
        <mxCell id="ce-0WmokCaHtLLE00WAw-12" value="" style="ellipse;shape=cloud;whiteSpace=wrap;html=1;" parent="1" vertex="1">
          <mxGeometry x="185" y="10" width="115" height="70" as="geometry" />
        </mxCell>
        <mxCell id="ce-0WmokCaHtLLE00WAw-13" value="" style="shape=image;html=1;verticalAlign=top;verticalLabelPosition=bottom;labelBackgroundColor=#ffffff;imageAspect=0;aspect=fixed;image=https://cdn4.iconfinder.com/data/icons/48-bubbles/48/27.Phone-128.png" parent="1" vertex="1">
          <mxGeometry x="60" y="22.5" width="65" height="65" as="geometry" />
        </mxCell>
        <mxCell id="ce-0WmokCaHtLLE00WAw-15" value="App" style="text;html=1;align=center;verticalAlign=middle;resizable=0;points=[];autosize=1;strokeColor=none;fillColor=none;" parent="1" vertex="1">
          <mxGeometry x="70" y="90" width="40" height="20" as="geometry" />
        </mxCell>
        <mxCell id="ce-0WmokCaHtLLE00WAw-16" value="" style="curved=1;endArrow=classic;html=1;rounded=0;" parent="1" edge="1">
          <mxGeometry width="50" height="50" relative="1" as="geometry">
            <mxPoint x="50" y="160" as="sourcePoint" />
            <mxPoint x="70" y="50" as="targetPoint" />
            <Array as="points">
              <mxPoint x="50" y="170" />
              <mxPoint x="70" y="100" />
              <mxPoint x="20" y="50" />
            </Array>
          </mxGeometry>
        </mxCell>
        <mxCell id="ce-0WmokCaHtLLE00WAw-18" value="" style="endArrow=classic;html=1;rounded=0;" parent="1" edge="1">
          <mxGeometry width="50" height="50" relative="1" as="geometry">
            <mxPoint x="125" y="54.5" as="sourcePoint" />
            <mxPoint x="185" y="54.5" as="targetPoint" />
          </mxGeometry>
        </mxCell>
        <mxCell id="ce-0WmokCaHtLLE00WAw-19" value="Security&lt;br&gt;" style="text;html=1;align=center;verticalAlign=middle;resizable=0;points=[];autosize=1;strokeColor=none;fillColor=none;" parent="1" vertex="1">
          <mxGeometry x="415" y="80" width="60" height="20" as="geometry" />
        </mxCell>
        <mxCell id="ce-0WmokCaHtLLE00WAw-20" value="Container" style="text;html=1;align=center;verticalAlign=middle;resizable=0;points=[];autosize=1;strokeColor=none;fillColor=none;" parent="1" vertex="1">
          <mxGeometry x="410" y="240" width="70" height="20" as="geometry" />
        </mxCell>
        <mxCell id="ce-0WmokCaHtLLE00WAw-21" value="" style="points=[];aspect=fixed;html=1;align=center;shadow=0;dashed=0;image;image=img/lib/allied_telesis/computer_and_terminals/Personal_Computer.svg;" parent="1" vertex="1">
          <mxGeometry x="340" y="340" width="45.6" height="61.800000000000004" as="geometry" />
        </mxCell>
        <mxCell id="ce-0WmokCaHtLLE00WAw-22" value="Personnel&amp;nbsp;&lt;br&gt;(local)" style="text;html=1;align=center;verticalAlign=middle;resizable=0;points=[];autosize=1;strokeColor=none;fillColor=none;" parent="1" vertex="1">
          <mxGeometry x="327.8" y="410" width="70" height="30" as="geometry" />
        </mxCell>
        <mxCell id="ce-0WmokCaHtLLE00WAw-23" value="" style="shape=image;html=1;verticalAlign=top;verticalLabelPosition=bottom;labelBackgroundColor=#ffffff;imageAspect=0;aspect=fixed;image=https://cdn2.iconfinder.com/data/icons/web-development-and-studio/512/108_Map_Camping_plan_track_location_camping_camp-128.png" parent="1" vertex="1">
          <mxGeometry x="115.35000000000001" y="306.8" width="38.2" height="38.2" as="geometry" />
        </mxCell>
        <mxCell id="ce-0WmokCaHtLLE00WAw-24" value="" style="shape=image;html=1;verticalAlign=top;verticalLabelPosition=bottom;labelBackgroundColor=#ffffff;imageAspect=0;aspect=fixed;image=https://cdn4.iconfinder.com/data/icons/car-silhouettes/1000/van-128.png" parent="1" vertex="1">
          <mxGeometry x="85.55" y="350" width="68" height="68" as="geometry" />
        </mxCell>
        <mxCell id="ce-0WmokCaHtLLE00WAw-26" value="" style="endArrow=classic;html=1;rounded=0;exitX=0.5;exitY=0.8;exitDx=0;exitDy=0;exitPerimeter=0;entryX=0.367;entryY=0.239;entryDx=0;entryDy=0;entryPerimeter=0;" parent="1" source="ce-0WmokCaHtLLE00WAw-19" edge="1" target="aeybAfqKCNcVXMwGGbME-3">
          <mxGeometry width="50" height="50" relative="1" as="geometry">
            <mxPoint x="350" y="270" as="sourcePoint" />
            <mxPoint x="424" y="130" as="targetPoint" />
          </mxGeometry>
        </mxCell>
        <mxCell id="ce-0WmokCaHtLLE00WAw-30" value="" style="endArrow=classic;startArrow=classic;html=1;rounded=0;entryX=0.711;entryY=0.704;entryDx=0;entryDy=0;entryPerimeter=0;" parent="1" edge="1" target="aeybAfqKCNcVXMwGGbME-3">
          <mxGeometry width="50" height="50" relative="1" as="geometry">
            <mxPoint x="410" y="380" as="sourcePoint" />
            <mxPoint x="640.6" y="290" as="targetPoint" />
            <Array as="points">
              <mxPoint x="600" y="380" />
            </Array>
          </mxGeometry>
        </mxCell>
        <mxCell id="ce-0WmokCaHtLLE00WAw-32" value="" style="curved=1;endArrow=classic;html=1;rounded=0;exitX=-0.082;exitY=0.441;exitDx=0;exitDy=0;exitPerimeter=0;" parent="1" edge="1" source="ce-0WmokCaHtLLE00WAw-24">
          <mxGeometry width="50" height="50" relative="1" as="geometry">
            <mxPoint x="70" y="410" as="sourcePoint" />
            <mxPoint x="30" y="260" as="targetPoint" />
            <Array as="points">
              <mxPoint y="380" />
              <mxPoint x="60" y="310" />
              <mxPoint x="20" y="300" />
            </Array>
          </mxGeometry>
        </mxCell>
        <mxCell id="ce-0WmokCaHtLLE00WAw-33" value="" style="ellipse;shape=cloud;whiteSpace=wrap;html=1;fillColor=none;" parent="1" vertex="1">
          <mxGeometry x="83.9" y="290" width="101.1" height="71.8" as="geometry" />
        </mxCell>
        <mxCell id="ce-0WmokCaHtLLE00WAw-35" value="" style="endArrow=classic;html=1;rounded=0;exitX=0;exitY=0.647;exitDx=0;exitDy=0;exitPerimeter=0;" parent="1" edge="1">
          <mxGeometry width="50" height="50" relative="1" as="geometry">
            <mxPoint x="331" y="379.9846" as="sourcePoint" />
            <mxPoint x="166" y="380" as="targetPoint" />
          </mxGeometry>
        </mxCell>
        <mxCell id="aeybAfqKCNcVXMwGGbME-3" value="" style="ellipse;shape=cloud;whiteSpace=wrap;html=1;fillColor=none;" vertex="1" parent="1">
          <mxGeometry x="280" y="103.35" width="450" height="236.65" as="geometry" />
        </mxCell>
        <mxCell id="aeybAfqKCNcVXMwGGbME-6" value="" style="endArrow=classic;startArrow=classic;html=1;rounded=0;" edge="1" parent="1">
          <mxGeometry width="50" height="50" relative="1" as="geometry">
            <mxPoint x="485" y="200.5" as="sourcePoint" />
            <mxPoint x="555" y="200.5" as="targetPoint" />
          </mxGeometry>
        </mxCell>
        <mxCell id="aeybAfqKCNcVXMwGGbME-7" value="AWS&lt;br&gt;Cloud" style="text;html=1;align=center;verticalAlign=middle;resizable=0;points=[];autosize=1;strokeColor=none;fillColor=none;" vertex="1" parent="1">
          <mxGeometry x="500" y="290" width="50" height="30" as="geometry" />
        </mxCell>
        <mxCell id="aeybAfqKCNcVXMwGGbME-9" value="" style="endArrow=classic;startArrow=classic;html=1;rounded=0;" edge="1" parent="1">
          <mxGeometry width="50" height="50" relative="1" as="geometry">
            <mxPoint x="360" y="333.2" as="sourcePoint" />
            <mxPoint x="400" y="225" as="targetPoint" />
            <Array as="points">
              <mxPoint x="360" y="225" />
            </Array>
          </mxGeometry>
        </mxCell>
      </root>
    </mxGraphModel>
  </diagram>
</mxfile>
